<?xml version="1.0" encoding="UTF-8"?>
<svg width="1024px" height="569px" viewBox="0 0 1024 569" version="1.1" xmlns="http://www.w3.org/2000/svg" xmlns:xlink="http://www.w3.org/1999/xlink">
    <!-- Generator: Sketch 63.1 (92452) - https://sketch.com -->
    <title>Artboard</title>
    <desc>Created with Sketch.</desc>
    <g id="Artboard" stroke="none" stroke-width="1" fill="none" fill-rule="evenodd">
        <rect id="Rectangle" fill="#F9FBFF" x="0" y="-962" width="1024" height="2595"></rect>
        <path d="M141.830202,-173.775893 C147.208906,-171.601398 150.560869,-169.01308 153.631123,-165.897639 C154.822013,-164.689222 155.749267,-163.588905 156.596202,-162.475297 C157.862953,-160.809685 158.607947,-159.608965 159.471907,-158.089329 L159.818318,-157.470716 C160.284526,-156.625986 160.772635,-155.693928 161.337776,-154.582452 L162.284994,-152.697369 C163.119637,-151.019651 164.128986,-148.953823 165.322143,-146.4824 L166.994469,-143.004293 L165.958485,-142.507142 L169.627705,-134.057135 C179.247226,-112.023677 196.777569,-72.6156887 222.17752,-15.9282241 C267.145515,84.4310922 274.301008,158.482403 239.315438,213.257058 C221.87659,240.559939 194.922413,261.003936 159.029643,275.75362 L157.016333,276.571305 C126.329148,288.888858 88.7160529,297.390561 42.7492006,302.928677 L39.7062986,303.289542 C6.72059074,307.139683 -15.6470446,318.411599 -28.1401457,334.336199 C-38.5456058,347.599742 -42.2327381,364.653148 -38.7434319,382.869531 C-35.0856612,401.965407 -23.8297815,420.425549 -7.11188782,433.799579 C11.3700811,448.58484 35.3336202,456.418218 62.9844648,455.291778 C87.9216763,454.275887 104.350144,449.613176 115.99695,441.968355 C124.583545,436.332219 130.873942,429.286846 140.859093,414.680261 L147.781318,404.429891 C155.575249,392.949579 160.321001,386.572884 167.030993,378.998981 C177.493754,367.189142 189.140433,357.432139 203.073264,349.436665 C234.268668,331.534916 275.258874,323.627728 331.227082,325.437379 C366.11257,326.565351 397.655883,338.789025 424.683067,359.792163 C446.948009,377.094508 465.383539,399.791731 479.125521,424.97298 C500.334618,463.837207 498.981053,531.226308 478.188774,632.16162 L480.284904,632.383549 C537.653367,638.312335 584.313761,640.080195 619.968955,637.789682 L621.068184,637.717547 C653.717095,635.529622 675.270835,629.944138 684.786088,623.119605 C701.775824,610.93422 716.348083,595.796279 726.226275,579.272477 C737.198587,560.918481 742.135085,541.452324 740.284067,520.667289 C736.119167,473.899732 726.632692,444.469783 712.90954,426.142614 L712.3388,425.387815 C703.299075,413.551373 694.021427,407.080831 670.994657,395.306184 L662.932326,391.205495 L661.143277,390.285988 C650.57982,384.834471 643.032198,380.523564 635.299328,375.252673 C624.43045,367.844211 614.953098,359.528759 606.543482,349.599381 C587.609491,327.243693 575.320492,298.006738 568.981608,259.190389 C561.342749,212.413602 570.122237,167.881912 592.817521,131.103692 C614.046001,96.7024611 646.431766,71.039617 683.136524,59.1872824 C721.837718,46.690279 762.693579,50.3682903 797.108583,71.1244516 C833.30403,92.9544229 859.272774,131.546282 872.15595,183.429764 L872.542341,185.006056 C893.499325,271.620053 920.086572,318.993797 953.36121,334.891223 C987.861457,351.3742 1041.97188,339.303156 1123.12998,290.209799 L1159.05582,268.50011 C1196.02912,246.183978 1223.19212,229.884612 1240.58536,219.578148 L1248.5132,214.89766 C1252.2029,212.729139 1255.25582,210.951898 1257.69342,209.55412 L1260.21756,208.11835 C1261.52693,207.380948 1262.62869,206.774733 1263.57777,206.272409 C1264.42817,205.822319 1265.2082,205.426412 1266.04403,205.032991 C1266.81984,204.667823 1267.60344,204.32258 1268.51655,203.962472 L1269.28715,203.66472 C1271.58553,202.796844 1273.80526,202.155489 1277.08605,201.688833 L1278.3359,201.533814 C1279.93535,201.34637 1280.58206,201.348463 1284.13893,201.359975 L1285.53333,201.458279 C1286.93859,201.567405 1287.51501,201.671194 1290.20497,202.155543 L1292.05428,202.618393 C1294.26816,203.191363 1295.00937,203.512871 1298.92718,205.21227 C1316.10573,213.756424 1322.59197,232.216363 1318.29031,248.204616 C1316.68519,254.170453 1314.38377,258.047193 1311.48919,261.696131 C1310.36677,263.111053 1309.32456,264.233594 1308.25798,265.273121 C1306.78518,266.708552 1305.67309,267.623124 1304.33586,268.629268 L1303.99652,268.883066 C1303.20283,269.473468 1302.34188,270.081097 1301.32355,270.776192 L1300.10678,271.598777 C1298.14514,272.914301 1295.45966,274.668576 1292.00538,276.892526 L1289.0067,278.817553 L1288.34597,277.78668 L1281.28024,281.946939 C1259.49038,294.827898 1219.57586,318.821788 1161.63805,353.868959 C1061.2277,414.608192 983.788522,431.883457 921.288067,402.022986 C890.122616,387.133254 864.996097,361.267473 844.751539,325.195271 C827.227387,293.97035 813.021992,254.587914 800.971631,205.548571 L800.228986,202.50288 C791.909646,168.119535 777.116455,145.950907 758.684334,134.834241 C743.331155,125.574528 724.82462,123.908494 705.998653,129.987588 C686.246721,136.365685 668.143628,150.710779 656.132802,170.174595 C642.858518,191.685871 637.654197,218.083447 642.408958,247.199373 L642.698793,248.935165 C647.009579,274.188638 653.953076,290.458645 663.317327,301.515177 L663.901166,302.195381 C670.943285,310.289887 679.348283,315.988102 696.133183,324.618765 L705.448619,329.358431 C719.655251,336.608318 727.255601,340.886848 736.505801,347.250437 C750.362816,356.783242 762.199204,367.840038 772.464187,381.548846 C795.440922,412.234106 809.093987,454.590093 814.390784,514.067691 C817.691565,551.13208 808.822565,586.105327 790.085198,617.448361 C774.6506,643.266671 753.015617,665.741506 728.147613,683.577345 C685.718265,714.008539 602.826305,719.839318 472.867505,706.413431 L468.914946,706.000697 L475.233763,646.131652 C473.880494,652.371837 472.457745,658.73363 470.966192,665.218115 L470.126367,668.850928 L402.185841,653.066526 L402.94279,649.792466 C415.074812,597.057597 422.099118,553.819438 424.07684,520.366616 L424.136398,519.335113 C425.862791,488.697818 423.148331,468.00423 417.899212,458.385575 C397.350609,420.731658 365.972376,396.347269 328.972994,395.150947 C284.949669,393.727517 256.448972,399.225424 237.789716,409.933198 L237.02011,410.379654 C224.814007,417.538894 217.689764,425.545105 203.782567,446.131975 L199.467844,452.534139 L198.347867,454.180028 C192.085962,463.34754 187.217699,469.861968 181.441428,476.438602 C173.299115,485.709119 164.474221,493.581972 154.271353,500.279011 C131.295312,515.360204 102.676936,523.482641 65.8235842,524.983972 C21.3992658,526.793729 -19.0516032,513.570852 -50.6838026,488.265631 C-80.2761738,464.592237 -100.443049,431.517666 -107.248018,395.991427 C-114.419835,358.550011 -106.289896,320.948117 -83.0177842,291.28382 C-58.5448185,260.088829 -19.6532871,240.301261 30.1086128,234.19085 L31.6198729,234.009875 C114.686026,224.31427 161.875285,204.922435 180.532823,175.71153 C199.868029,145.439642 194.868914,93.7044229 158.525103,12.5925118 L138.309652,-32.5963697 C123.238786,-66.3508702 112.261673,-91.1173626 105.362902,-106.931389 L102.870907,-112.664 C101.038467,-116.896888 99.5906534,-120.287175 98.5144772,-122.867344 L97.7089969,-124.816737 C97.3187688,-125.771931 96.9843801,-126.609798 96.6973206,-127.354525 L96.5771679,-127.668063 C96.2558895,-128.511559 95.9769508,-129.28342 95.7067264,-130.107133 C95.4558846,-130.871762 95.2245099,-131.641402 94.9942399,-132.533427 L94.7962196,-133.324458 C94.2583187,-135.550119 93.92046,-137.684303 93.864531,-140.774304 L93.8656925,-142.119489 C93.8803235,-143.513522 93.9661845,-144.189023 94.3709577,-147.373527 L94.5862983,-148.477312 C94.8725355,-149.909263 95.0143261,-150.365644 95.8083535,-152.92138 L96.4822055,-154.665675 C97.2482297,-156.596037 97.6483356,-157.275729 99.6488653,-160.674187 C109.552747,-175.652521 127.447659,-179.590447 141.830202,-173.775893 Z M1250.68704,218.972693 L1250.53002,219.223159 C1248.88368,221.876817 1247.51191,224.910132 1246.44526,228.874596 C1242.14875,244.843709 1248.63037,263.290499 1265.79454,271.827496 L1268.07451,272.811541 C1270.7598,273.955253 1271.35548,274.102368 1274.50412,274.879979 L1276.52018,275.238356 C1278.08478,275.506207 1278.5786,275.539675 1280.55387,275.67355 L1283.13772,275.676085 C1284.52508,275.66833 1285.17568,275.632392 1286.18475,275.517316 L1286.84203,275.437864 L1250.68704,218.972693 Z M163.605244,-141.380006 L106.909854,-114.216229 L106.920497,-114.208729 C109.258301,-112.292364 111.98979,-110.605339 115.687363,-109.110489 C130.052683,-103.302898 147.934823,-107.238014 157.830383,-122.203763 L158.914022,-124.050822 C160.367368,-126.549624 160.557337,-127.046552 161.665489,-129.9453 L162.289434,-131.975045 C162.668283,-133.248013 162.764031,-133.743614 163.099148,-135.478217 L163.380912,-137.728592 C163.521233,-138.899421 163.575158,-139.523943 163.594572,-140.277375 L163.605244,-141.380006 Z" id="Combined-Shape" fill="#F4F6FA" fill-rule="nonzero"></path>
    </g>
</svg>