<svg xmlns="http://www.w3.org/2000/svg" xmlns:xlink="http://www.w3.org/1999/xlink" width="22" height="22" viewBox="0 0 22 22">
    <defs>
        <path id="prefix__a" d="M0 0.007L21.564 0.007 21.564 21.569 0 21.569z"/>
    </defs>
    <g fill="none" fill-rule="evenodd">
        <mask id="prefix__b" fill="#fff">
            <use xlink:href="#prefix__a"/>
        </mask>
        <path fill="#FFF" d="M10.782.007c-2.928 0-3.295.012-4.445.065-1.148.052-1.932.234-2.618.5-.709.276-1.31.645-1.91 1.244-.599.6-.967 1.201-1.243 1.91C.3 4.412.117 5.196.065 6.344.012 7.494 0 7.86 0 10.789c0 2.928.012 3.295.065 4.445.052 1.148.235 1.932.501 2.618.276.709.644 1.31 1.244 1.91.6.599 1.2.968 1.91 1.243.685.267 1.47.449 2.617.501 1.15.053 1.517.065 4.445.065 2.928 0 3.296-.012 4.446-.065 1.147-.052 1.931-.234 2.617-.5.709-.276 1.31-.645 1.91-1.244.6-.6.968-1.201 1.243-1.91.267-.686.45-1.47.502-2.618.052-1.15.064-1.517.064-4.445 0-2.928-.012-3.295-.064-4.445-.053-1.148-.235-1.932-.502-2.618-.275-.709-.644-1.31-1.243-1.91-.6-.599-1.201-.968-1.91-1.243-.686-.267-1.47-.449-2.617-.501-1.15-.053-1.518-.065-4.446-.065zm0 1.943c2.88 0 3.22.01 4.357.062 1.051.048 1.622.224 2.002.372.504.195.863.429 1.24.806.377.378.61.737.807 1.24.147.38.323.95.37 2.002.053 1.137.064 1.478.064 4.357 0 2.879-.011 3.22-.063 4.357-.048 1.051-.224 1.622-.371 2.002-.196.503-.43.862-.807 1.24-.377.377-.736.61-1.24.806-.38.148-.95.324-2.002.372-1.137.051-1.478.062-4.357.062-2.879 0-3.22-.01-4.357-.062-1.051-.048-1.622-.224-2.002-.372-.503-.195-.862-.429-1.24-.806-.377-.378-.61-.737-.806-1.24-.148-.38-.323-.95-.371-2.002-.052-1.137-.063-1.478-.063-4.357 0-2.879.01-3.22.063-4.357.048-1.051.223-1.622.37-2.002.196-.503.43-.862.807-1.24.378-.377.737-.61 1.24-.806.38-.148.951-.324 2.002-.372 1.137-.051 1.478-.062 4.357-.062z" mask="url(#prefix__b)"/>
        <path fill="#FFF" d="M10.782 14.383c-1.985 0-3.594-1.609-3.594-3.594 0-1.985 1.61-3.594 3.594-3.594 1.985 0 3.594 1.609 3.594 3.594 0 1.985-1.609 3.594-3.594 3.594zm0-9.13c-3.058 0-5.537 2.478-5.537 5.536 0 3.058 2.48 5.537 5.537 5.537 3.058 0 5.537-2.48 5.537-5.537 0-3.058-2.479-5.537-5.537-5.537zM17.832 5.033c0 .715-.58 1.294-1.294 1.294-.715 0-1.294-.579-1.294-1.294 0-.714.58-1.293 1.294-1.293.714 0 1.294.579 1.294 1.293"/>
    </g>
</svg>
