<svg xmlns="http://www.w3.org/2000/svg" width="24" height="20" viewBox="0 0 24 20">
    <g fill="#FFF">
        <path d="M1.485 20C.925 20 .5 19.77.203 19.302c-.136-.214-.203-.455-.203-.71C0 12.865 0 7.135.002 1.407c0-.737.6-1.362 1.337-1.4.062-.003.125-.003.187-.003C7.182.003 12.84.005 18.496 0c.559 0 .989.214 1.29.683.145.225.214.476.214.744v17.15c0 .768-.608 1.393-1.375 1.421-.075.003-.15.002-.225.002-2.8-.002-14.076-.004-16.915 0zm9.294-2.957v-.245c0-1.573-.006-3.146.005-4.719.002-.314.045-.635.114-.943.108-.487.352-.892.837-1.102.38-.164.777-.175 1.175-.11.565.09.873.465 1.023.992.111.388.125.786.125 1.185 0 1.567 0 3.133.002 4.7 0 .084.01.169.017.245.245.063 2.847.046 2.993-.02v-.197c0-.455.003-.912 0-1.367-.011-1.572-.014-3.144-.043-4.716-.01-.6-.14-1.187-.378-1.744-.334-.786-.902-1.32-1.724-1.57-.59-.18-1.193-.235-1.807-.182-.986.086-1.756.547-2.33 1.347l-.102.147c-.013-.003-.024-.006-.036-.007V7.492H7.777v9.548c.156.052 2.787.06 3.002.003zm-7.836-.001c.18.059 2.835.054 2.988-.004V7.494H2.943v9.548zm1.49-10.848c.878.035 1.735-.72 1.746-1.723.01-.952-.798-1.747-1.724-1.752-1.014-.006-1.756.855-1.756 1.738-.001.94.805 1.764 1.734 1.737zM22.509 17.003c.737-.039 1.488.579 1.491 1.485.003.95-.8 1.517-1.52 1.512-.662-.005-1.48-.553-1.48-1.508 0-.89.75-1.538 1.509-1.49zm.076 2.85c.69-.004 1.354-.667 1.275-1.476-.084-.847-.791-1.293-1.426-1.254-.801.048-1.354.713-1.295 1.51.052.71.732 1.282 1.446 1.22z"/>
        <path d="M22.61 18.567c.128.144.25.28.384.427l-.17.006-.396-.439h-.271v.431H22v-.977c.257-.013.512-.031.763.013.152.026.232.122.237.24.004.111-.082.21-.22.254-.05.015-.103.027-.17.045zm-.447-.095c.18-.012.345-.012.501-.038.127-.02.164-.094.142-.2-.017-.082-.094-.126-.198-.131-.145-.008-.29-.002-.445-.002v.37z"/>
    </g>
</svg>
