<svg xmlns="http://www.w3.org/2000/svg" width="22" height="18" viewBox="0 0 22 18">
    <path fill="#FFF" fill-rule="evenodd" d="M19.761 5.071c0-.197-.004-.392-.013-.587.881-.642 1.648-1.442 2.252-2.353-.809.362-1.68.605-2.592.715.932-.562 1.647-1.452 1.985-2.513-.873.52-1.838.899-2.866 1.103C17.703.552 16.53 0 15.232 0c-2.493 0-4.514 2.035-4.514 4.544 0 .356.04.703.117 1.036C7.084 5.39 3.757 3.582 1.53.832 1.143 1.504.92 2.284.92 3.116c0 1.577.797 2.968 2.008 3.783-.74-.023-1.435-.228-2.044-.569v.058c0 2.2 1.555 4.038 3.62 4.455-.379.104-.778.16-1.19.16-.29 0-.573-.03-.848-.082.575 1.805 2.24 3.119 4.217 3.156-1.545 1.219-3.492 1.945-5.606 1.945-.364 0-.724-.021-1.077-.063C1.998 17.248 4.37 18 6.919 18 15.22 18 19.76 11.076 19.76 5.071z"/>
</svg>
