<svg xmlns="http://www.w3.org/2000/svg" width="16" height="19" viewBox="0 0 16 19">
    <path fill="#333" fill-rule="evenodd" d="M6.5 2.268C3.913 2.958 2 5.392 2 8.291v4.145c0 .382-.3.691-.665.691-.737 0-1.335.621-1.335 1.382 0 .764.598 1.382 1.337 1.382h13.326c.738 0 1.337-.62 1.337-1.382 0-.764-.6-1.382-1.335-1.382-.367 0-.665-.307-.665-.69V8.29c0-2.897-1.911-5.332-4.5-6.023v-.713C9.5.694 8.828 0 8 0c-.827 0-1.5.696-1.5 1.555v.713zm-.833 14.314h4.666C10.333 17.918 9.29 19 8 19c-1.29 0-2.333-1.082-2.333-2.418z"/>
</svg>
