<svg xmlns="http://www.w3.org/2000/svg" width="16" height="13" viewBox="0 0 16 13">
    <path fill="#004BFF" fill-rule="evenodd" d="M16 6.502c0-.231-.135-.43-.354-.513l-2.745-1.041 2.745-1.042c.22-.083.354-.281.354-.513 0-.231-.135-.43-.354-.513L8.202.037c-.135-.05-.27-.05-.404 0L.354 2.882c-.22.082-.354.28-.354.512 0 .232.135.43.354.513L3.082 4.95.354 5.989C.134 6.072 0 6.27 0 6.502c0 .231.135.43.354.513l2.728 1.042-2.728 1.04C.134 9.182 0 9.38 0 9.612c0 .23.135.43.354.512l7.444 2.844C7.865 13 7.933 13 8 13s.135-.017.202-.033l7.444-2.844c.22-.082.354-.28.354-.512 0-.232-.135-.43-.354-.513l-2.745-1.042 2.745-1.042c.22-.082.354-.28.354-.512zM8 1.13l5.912 2.249L8 5.643l-5.912-2.25L8 1.13zm5.912 8.482L8 11.876 2.088 9.61l2.544-.96L7.798 9.86c.067.033.135.033.202.033s.135-.017.202-.033l3.166-1.207 2.544.959zM8 8.75L2.088 6.502l2.526-.975 3.167 1.207c.067.033.135.033.202.033s.135-.017.202-.033l3.183-1.207 2.527.975L8 8.751z"/>
</svg>
