<svg xmlns="http://www.w3.org/2000/svg" width="13" height="13" viewBox="0 0 13 13">
    <g fill="#333" fill-rule="evenodd" stroke="#333" stroke-width=".5">
        <path d="M9.533 0H2.2C.985 0 0 .985 0 2.2v7.333c0 1.215.985 2.2 2.2 2.2h5.26-.001c.389 0 .762-.154 1.037-.43l2.808-2.808v.001c.275-.275.429-.648.429-1.037V2.2c0-1.215-.985-2.2-2.2-2.2h0zM8.066 10.696V8.8c.001-.405.33-.733.734-.734h1.896l-2.63 2.63zM11 7.333H8.8c-.81 0-1.467.656-1.467 1.467V11H2.2c-.81-.001-1.466-.657-1.467-1.467V2.2C.734 1.39 1.39.734 2.2.733h7.333c.81.001 1.466.657 1.467 1.467v5.133z" transform="translate(1 1)"/>
        <path d="M8.433 2.933H3.299 3.3c-.203 0-.367.164-.367.367 0 .202.164.366.367.366h5.134-.001c.203 0 .367-.164.367-.366 0-.203-.164-.367-.367-.367zM8.433 5.133H3.299 3.3c-.203 0-.367.164-.367.367 0 .202.164.366.367.366h5.134-.001c.203 0 .367-.164.367-.366 0-.203-.164-.367-.367-.367z" transform="translate(1 1)"/>
    </g>
</svg>
