<svg xmlns="http://www.w3.org/2000/svg" width="21" height="19" viewBox="0 0 21 19">
    <path fill="#333" fill-rule="evenodd" d="M17.784 15.681H16.71v2.49c0 .32-.183.588-.444.749-.105.053-.235.08-.366.08-.157 0-.34-.053-.471-.161l-4.21-3.158H3.216C1.438 15.681 0 14.21 0 12.39V3.292C0 1.472 1.438 0 3.217 0h14.566C19.562 0 21 1.472 21 3.292v9.098c-.026 1.82-1.464 3.291-3.217 3.291zm1.569-12.39c0-.883-.706-1.632-1.596-1.632H3.19c-.863 0-1.595.722-1.595 1.633v9.098c0 .883.706 1.632 1.595 1.632h8.265c.182 0 .34.053.47.16l3.138 2.355v-1.686c0-.454.366-.83.812-.83h1.882c.863 0 1.596-.722 1.596-1.632l-.001-9.097zm-7.898 4.87c0-.535-.418-.99-.967-.99-.55 0-.967.43-.967.99 0 .563.444.99.967.99.523 0 .967-.454.967-.99zm-3.32 0c0-.535-.42-.99-.968-.99-.55 0-.967.43-.967.99 0 .563.419.99.967.99.549 0 .968-.454.968-.99zm6.616 0c0-.535-.419-.99-.967-.99-.523 0-.968.43-.968.99 0 .563.419.99.968.99.548 0 .967-.454.967-.99z"/>
</svg>
