<svg xmlns="http://www.w3.org/2000/svg" width="15" height="13" viewBox="0 0 15 13">
    <path fill="#333" fill-rule="evenodd" d="M12.703 10.73h-.767v1.702c0 .22-.13.403-.317.513-.074.036-.168.055-.261.055-.113 0-.243-.036-.337-.11l-3.007-2.16H2.298C1.028 10.73 0 9.721 0 8.476V2.252C0 1.007 1.027 0 2.298 0h10.404C13.972 0 15 1.007 15 2.252v6.225c-.018 1.245-1.046 2.252-2.298 2.252zm1.12-8.478c0-.604-.504-1.117-1.14-1.117H2.28c-.617 0-1.14.494-1.14 1.117v6.225c0 .604.504 1.117 1.14 1.117h5.903c.13 0 .242.036.336.11l2.241 1.611v-1.154c0-.31.262-.567.58-.567h1.344c.617 0 1.14-.495 1.14-1.118V2.252zm-5.64 3.332c0-.366-.3-.677-.692-.677-.392 0-.69.293-.69.677 0 .385.317.677.69.677.374 0 .691-.31.691-.677zm-2.373 0c0-.366-.299-.677-.69-.677-.393 0-.692.293-.692.677 0 .385.3.677.691.677.392 0 .691-.31.691-.677zm4.726 0c0-.366-.299-.677-.69-.677-.374 0-.692.293-.692.677 0 .385.3.677.691.677.392 0 .691-.31.691-.677z"/>
</svg>
