<svg xmlns="http://www.w3.org/2000/svg" width="13" height="13" viewBox="0 0 13 13">
    <path fill-rule="evenodd" stroke="#333" stroke-width=".62" d="M10.255 7.653s0 0 0 0c-.469-.465-1.1-.465-1.568 0-.28.276-.56.553-.848.847-.068-.036-.138-.07-.209-.105-.106-.052-.212-.103-.31-.165-.747-.469-1.433-1.094-2.097-1.911-.337-.415-.567-.78-.73-1.16.284-.275.56-.555.837-.834.488-.492.487-1.105-.002-1.6-.224-.226-.451-.453-.678-.676l-.231-.232c-.155-.155-.31-.311-.469-.468-.478-.466-1.094-.466-1.569.002l-.336.337c-.173.175-.347.35-.523.519-.308.293-.48.665-.513 1.104-.04.557.06 1.121.324 1.828.408 1.095 1.03 2.132 1.902 3.171 1.082 1.292 2.393 2.317 3.896 3.048.817.398 1.517.601 2.207.638.049.003.096.004.143.004.573 0 1.026-.194 1.378-.589.165-.183.343-.356.521-.528.086-.084.173-.168.258-.254.48-.485.483-1.108.005-1.59l-1.388-1.386zm1.045 2.639c-.083.083-.167.166-.252.248-.186.18-.372.36-.544.553-.283.317-.648.45-1.14.426-.624-.034-1.266-.22-2.023-.59-1.443-.702-2.701-1.686-3.74-2.925-.836-.997-1.432-1.99-1.82-3.031-.24-.64-.331-1.142-.296-1.626.024-.322.144-.582.367-.795.18-.172.356-.35.533-.528.11-.111.22-.223.332-.333.144-.142.296-.213.448-.213.153 0 .305.071.45.212.157.155.31.31.465.464l.233.234c.226.223.451.448.675.674.305.309.306.62.002.927-.28.284-.562.568-.849.845-.142.138-.175.297-.098.49.175.421.431.833.808 1.297.698.858 1.421 1.517 2.215 2.015.113.07.233.13.354.188.074.037.149.073.221.113.133.072.33.116.526-.087.28-.29.568-.574.856-.858.284-.282.61-.282.895 0l1.387 1.384c.292.294.29.62-.005.916h0z"/>
</svg>
