<svg xmlns="http://www.w3.org/2000/svg" width="20" height="19" viewBox="0 0 20 19">
    <g fill="#333">
        <path d="M18.44 1.56h-6.58l-.54-1.2c-.08-.2-.28-.32-.48-.32H8.38c-.2 0-.4.12-.48.32l-.54 1.2H.76c-.36 0-.66.3-.66.66 0 .2.16.36.36.36h1.02l1.08 13.5c.1 1.28 1.18 2.28 2.46 2.28h9.16c1.28 0 2.36-1 2.46-2.28l1.08-13.5h1.02c.2 0 .36-.16.36-.36 0-.36-.3-.66-.66-.66zM15.5 16c-.06.68-.64 1.22-1.32 1.22H5.02c-.68 0-1.28-.54-1.32-1.22L2.62 2.6h13.96L15.5 16z"/>
        <path d="M6.26 14.6c.32 0 .58-.26.58-.56V5.72c0-.32-.26-.56-.58-.56-.32 0-.58.26-.58.56v8.32c.02.3.26.56.58.56zM9.6 14.6c.32 0 .58-.26.58-.56V5.72c0-.32-.26-.56-.58-.56-.32 0-.58.26-.58.56v8.32c0 .3.26.56.58.56zM12.94 14.6c.32 0 .58-.26.58-.56V5.72c0-.32-.26-.56-.58-.56-.32 0-.58.26-.58.56v8.32c0 .3.26.56.58.56z"/>
    </g>
</svg>
