<svg xmlns="http://www.w3.org/2000/svg" width="17" height="20" viewBox="0 0 17 20">
    <path fill="#004BFF" fill-rule="evenodd" d="M16.17 18.711c0 .635-.514 1.155-1.151 1.155H1.15C.518 19.866 0 19.348 0 18.711c0-4.465 3.62-8.085 8.085-8.085 4.465 0 8.085 3.62 8.085 8.085zm-8.085-6.699c-3.622 0-6.573 2.875-6.695 6.468h13.39c-.122-3.593-3.073-6.468-6.695-6.468zm0-2.31c-2.68 0-4.85-2.171-4.85-4.851S5.404 0 8.084 0c2.68 0 4.851 2.171 4.851 4.851s-2.17 4.851-4.85 4.851zm0-1.386c1.913 0 3.465-1.552 3.465-3.465 0-1.913-1.552-3.465-3.465-3.465-1.913 0-3.465 1.552-3.465 3.465 0 1.913 1.552 3.465 3.465 3.465z"/>
</svg>
